<?xml version="1.0" encoding="UTF-8"?>
<svg id="Layer_1" data-name="Layer 1" xmlns="http://www.w3.org/2000/svg" viewBox="0 0 512.01 524.05">
  <defs>
    <style>
      .cls-1 {
        fill: #fff;
      }

      .cls-2 {
        fill: #002044;
      }
    </style>
  </defs>
  <rect class="cls-1" x="2.75" y=".02" width="506.51" height="507.82"/>
  <path class="cls-2" d="M350.4.06c41.32,0,40.47-.02,63.61-.02,0,0-6.1,4.26-6.1,4.26-23.79,18.31-40.11,35.07-61.82,68.21-6.97,10.64-6.23,8.87-19.41,33.68,0,0,0,0,0,0l-201.65-.13c-2.7,0-4.67,1.5-4.67,4.24v82.73s1.81,3.62,4.18,3.59c28.43-.4,127.09-.17,157.17-.35,13.05-.02,24.72,2.84,34.71,11.43,24.05,19.51,22.96,58.85,1.18,79.74-7.99,7.43-17.98,12.57-29.21,12.68-14.66.35-146.24.17-164.45.15-1.8,0-3.05,1.33-2.59,3.22l.11,208.57H27.02c-9,0-15.02-2.29-19.47-6.74C.44,498.19,0,491.41,0,485.98c0-3.39,0-5.26,0-9.13V27C0,13.81,13.74,0,27.34,0l323.05.06Z"/>
  <path class="cls-2" d="M215.99,388.97c-.23-5.3.71-8.21,6.55-8.1,8.06-.07,16.18-.04,24.31-.09,7.22-.24,15.17-.57,19.23,6.55,17.51,28.33,52.04,86.34,69.9,115.65l5.58,9.02c-32.38-.04-125.59,0-125.59,0l-.05-27.77"/>
  <path class="cls-2" d="M512.01.02c-40.79,19.83-80.44,37.02-120.4,89.22-9.1,11.88-15.89,23.63-16.57,25.17l21.96,18.81c2.52,2.16,4.96,4.42,7.28,6.79,17.08,17.47,29.67,35.78,35.46,58.26,5.74,22.28,6.42,46.69,3.63,69.92-4.8,39.96-27.86,75.78-61.73,97.68-3.43,2.22-13.84,8.69-13.84,8.69,13.13,28.44,30.73,53.7,51.86,76.11,26.02,27.6,57.37,47.49,92.34,61.35V.02Z"/>
</svg>